<svg id="Layer_1" data-name="Layer 1" xmlns="http://www.w3.org/2000/svg" width="49.12" height="34.66" viewBox="0 0 49.12 34.66">
  <defs>
    <style>
      .cls-1 {
        fill: #efb426;
      }

      .cls-2 {
        fill: none;
        stroke: #21505c;
        stroke-linecap: round;
        stroke-linejoin: round;
        stroke-width: 0.8px;
      }
    </style>
  </defs>
  <title>supportive_staff</title>
  <g>
    <path class="cls-1" d="M12,8.82,20.82,7.3l2.36,1.19,2.05-.78L37.76,9.05c0,1.69,0,11.9,0,11.9l-3,1.73-4.43,1.48-1.21,2.28-1.54.49L24.47,28.4s-5.45-.38-8-3.1a76.47,76.47,0,0,0-6.77-6.08v-10Z"/>
    <path class="cls-2" d="M37.76,9.05,24.64,7.71,16.2,12.27s-2.42,2-1.18,3.87,12.78-3,12.78-3l7.54,4.6a2.14,2.14,0,0,1,0,2.54,2.09,2.09,0,0,1-2.64.81c-.22-.13-3.16-2-3.16-2"/>
    <path class="cls-2" d="M33.17,21.19a2.69,2.69,0,0,1-.59,2.37,2.68,2.68,0,0,1-3,.25C28.85,23.31,26.5,22,26.5,22"/>
    <path class="cls-2" d="M30.28,24.16a3.09,3.09,0,0,1-1.21,2.28,2.83,2.83,0,0,1-3.16,0,24.46,24.46,0,0,1-2.73-1.73"/>
    <path class="cls-2" d="M26.5,26.69a3,3,0,0,1-2.64,1.71c-2,.09-5.52-1.4-7.38-3.1s-6.77-6.08-6.77-6.08v-10L20.82,7.3l2,1.4"/>
    <path class="cls-2" d="M3.9,26.29H5.12c1.55,0,1.31-1,1.31-1V6.93H8.78s.93,0,.93,2.12v13s-.06.87-.86.87H6.44"/>
    <path class="cls-2" d="M43.69,26.29H42.35c-1.55,0-1.3-1-1.3-1V6.93H38.69s-.93,0-.93,2.12v13s.06.87.87.87H41"/>
    <line class="cls-2" x1="33" y1="22.98" x2="37.76" y2="20.95"/>
  </g>
</svg>
