<svg id="Layer_1" data-name="Layer 1" xmlns="http://www.w3.org/2000/svg" width="60" height="60" viewBox="0 0 60 60">
  <defs>
    <style>
      .cls-1, .cls-3 {
        fill: none;
        stroke: #21505c;
        stroke-miterlimit: 10;
        stroke-width: 1.1px;
      }

      .cls-1 {
        stroke-linecap: round;
      }

      .cls-2 {
        fill: #8cc63e;
      }
    </style>
  </defs>
  <title>reliable_payments</title>
  <g>
    <line class="cls-1" x1="29.55" y1="6.09" x2="29.55" y2="18.68"/>
    <path class="cls-1" d="M27.2,16.47c2,.58,4.67.89,4.87-1.43.18-2.06-2.54-2.51-2.54-2.51S26.81,12.07,27,10c.2-2.33,2.91-2,4.87-1.43"/>
    <line class="cls-1" x1="19.27" y1="10.46" x2="21.78" y2="19.76"/>
    <path class="cls-1" d="M19.6,18.6c1.57,0,3.63-.27,3.32-2-.28-1.56-2.38-1.35-2.38-1.35s-2.1.21-2.38-1.35c-.32-1.76,1.75-2.06,3.32-2"/>
    <line class="cls-1" x1="39.89" y1="10.14" x2="36.86" y2="19.28"/>
    <path class="cls-1" d="M35.69,17.11c1.29.9,3.18,1.78,3.88.14.63-1.46-1.24-2.44-1.24-2.44s-1.87-1-1.24-2.44c.7-1.64,2.59-.76,3.88.14"/>
    <line class="cls-1" x1="28" y1="25.89" x2="25.74" y2="22.38"/>
    <line class="cls-1" x1="32.22" y1="25.89" x2="34.48" y2="22.38"/>
    <line class="cls-1" x1="30.11" y1="25.09" x2="30.11" y2="20.91"/>
    <polygon class="cls-2" points="30 47.84 47.66 53.91 50.7 52.91 50.7 35.06 47.83 36.34 30.79 30.13 9.3 36.45 9.87 53.07 13.19 53.91 30 47.84"/>
    <path class="cls-1" d="M25.19,28.23,11.8,32.9c-.81.34-2.5,1-2.5,2.16s3.13,1.15,4.88.55L30,30l15.82,5.62c1.75.6,4.88.75,4.88-.55S49,33.24,48.2,32.9L34.76,28.21"/>
    <path class="cls-3" d="M9.3,52.91c0,1.31,3.13,1.16,4.88.55L30,47.84l15.82,5.62c1.75.61,4.88.76,4.88-.55"/>
    <path class="cls-3" d="M9.3,42.5c0,1.3,3.13,1.15,4.88.55L30,37.43"/>
    <line class="cls-3" x1="9.3" y1="35.06" x2="9.3" y2="53.07"/>
    <line class="cls-3" x1="50.7" y1="53.07" x2="50.7" y2="35.06"/>
    <line class="cls-3" x1="30" y1="29.96" x2="30" y2="47.98"/>
    <path class="cls-3" d="M14.18,43.05V39.7a.89.89,0,0,1,.6-.84L25.69,35a.89.89,0,0,1,1.19.85v2.62"/>
  </g>
</svg>
